<svg xmlns="http://www.w3.org/2000/svg" xmlns:xlink="http://www.w3.org/1999/xlink" id="svgh" width="20" height="20" viewBox="0 0 20 20">
  <defs>
    <clipPath id="clip-path">
      <rect id="SVGID" class="cls-1" width="20" height="20"/>
    </clipPath>
  </defs>
  <g id="Group_17845" data-name="Group 17845" class="cls-2">
    <g id="Group_17844" data-name="Group 17844" transform="translate(2.5 2.5)">
      <rect id="Rectangle_10709" data-name="Rectangle 10709" class="cls-3" width="1.758" height="4.209" transform="translate(11.614 7.861)"/>
      <rect id="Rectangle_10710" data-name="Rectangle 10710" class="cls-3" width="1.758" height="4.209" transform="translate(8.286 7.861)"/>
      <rect id="Rectangle_10711" data-name="Rectangle 10711" class="cls-3" width="1.758" height="4.209" transform="translate(4.957 7.861)"/>
      <rect id="Rectangle_10712" data-name="Rectangle 10712" class="cls-3" width="1.758" height="4.209" transform="translate(1.628 7.861)"/>
      <path id="Path_31908" data-name="Path 31908" class="cls-3" d="M19.678,11.323v-.44H6.763v.44a.439.439,0,0,0,.44.439H19.239A.439.439,0,0,0,19.678,11.323Z" transform="translate(-5.721 -4.78)"/>
      <rect id="Rectangle_10713" data-name="Rectangle 10713" class="cls-3" width="14.999" height="2.051" rx="0.352" transform="translate(0.001 12.949)"/>
      <path id="Path_31909" data-name="Path 31909" class="cls-3" d="M6.369,11.225H20.49a.44.44,0,0,0,.23-.814L13.659,6.065a.441.441,0,0,0-.46,0L6.138,10.411a.44.44,0,0,0,.231.814Zm6.761-2.64h.6a.439.439,0,1,1,0,.879h-.6a.439.439,0,0,1,0-.879Z" transform="translate(-5.929 -6)"/>
    </g>
  </g>
</svg>
