<svg xmlns="http://www.w3.org/2000/svg" xmlns:xlink="http://www.w3.org/1999/xlink" width="20" height="20" viewBox="0 0 20 20">
  <defs>
    <style>
      .cls-1 {
        fill: none;
        stroke: rgba(0,0,0,0);
      }

      .cls-2 {
        clip-path: url(#clip-path);
      }

      .cls-3 {
        stroke: #000;
        stroke-width: 0.5px;
      }
    </style>
    <clipPath id="clip-path">
      <rect id="Rectangle_10575" data-name="Rectangle 10575" class="cls-1" width="20" height="20"/>
    </clipPath>
  </defs>
  <g id="AddNew" transform="translate(-1275 -81.001)">
    <g id="Group_16992" data-name="Group 16992" transform="translate(1275.032 81.033)">
      <g id="Group_16991" data-name="Group 16991" class="cls-2" transform="translate(-0.032 -0.032)">
        <g id="Group_16990" data-name="Group 16990" transform="translate(2.5 3.34)">
          <path id="Path_31663" data-name="Path 31663" class="cls-3" d="M15.539,15.206a.482.482,0,0,0-.674.092c-.031.041-.062.081-.1.121a5.163,5.163,0,0,1-1.933,1.426l-.013.005a5.657,5.657,0,0,1-8.052-5c0-.025,0-.05,0-.075h.59a.249.249,0,0,0,.177-.425L4.465,10.273a.249.249,0,0,0-.352,0L3.041,11.345a.249.249,0,0,0,.176.425h.591a6.574,6.574,0,0,0,1.025,3.492l.006.01A6.589,6.589,0,0,0,8.365,18a6.984,6.984,0,0,0,2.119.335,6.392,6.392,0,0,0,2.749-.613,6.043,6.043,0,0,0,2.4-1.84A.482.482,0,0,0,15.539,15.206Z" transform="translate(-2.968 -5.013)"/>
          <path id="Path_31664" data-name="Path 31664" class="cls-3" d="M18.161,10.633H17.57c0-.132,0-.265-.012-.4A6.659,6.659,0,0,0,5.73,6.45a.481.481,0,1,0,.748.6l.109-.132A5.7,5.7,0,0,1,16.6,10.294q.005.085.007.17c0,.057,0,.113,0,.169h-.59a.249.249,0,0,0-.177.425l1.072,1.072a.249.249,0,0,0,.352,0l1.072-1.072A.249.249,0,0,0,18.161,10.633Z" transform="translate(-3.41 -3.976)"/>
        </g>
      </g>
    </g>
  </g>
</svg>
