<svg id="Group_19272" data-name="Group 19272" xmlns="http://www.w3.org/2000/svg" xmlns:xlink="http://www.w3.org/1999/xlink" width="20" height="20" viewBox="0 0 20 20">
  <defs>
    <clipPath id="clip-path">
      <rect id="SVGID" width="20" height="20" fill="none"/>
    </clipPath>
  </defs>
  <g id="Group_19271" data-name="Group 19271" clip-path="url(#clip-path)">
    <g id="Group_19270" data-name="Group 19270" transform="translate(2.5 2.765)">
      <path id="Path_34946" data-name="Path 34946" d="M16.5,15.537a3.348,3.348,0,0,0-3.213,3.336,6.782,6.782,0,0,0,3.213.952,6.752,6.752,0,0,0,3.212-.952A3.348,3.348,0,0,0,16.5,15.537Z" transform="translate(-4.715 -5.355)" fill="#fff"/>
      <g id="Group_19273" data-name="Group 19273">
        <path id="Path_34947" data-name="Path 34947" d="M11.49,11.585A4.423,4.423,0,0,0,7.245,7.177,4.424,4.424,0,0,0,3,11.585a8.961,8.961,0,0,0,4.245,1.258A8.917,8.917,0,0,0,11.49,11.585Z" transform="translate(-3 -2.928)" fill="#fff"/>
        <circle id="Ellipse_1012" data-name="Ellipse 1012" cx="1.77" cy="1.77" r="1.77" transform="translate(2.475)" fill="#fff"/>
      </g>
      <circle id="Ellipse_1013" data-name="Ellipse 1013" cx="1.34" cy="1.34" r="1.34" transform="translate(10.448 6.967)" fill="#fff"/>
      <circle id="Ellipse_1014" data-name="Ellipse 1014" cx="0.268" cy="0.268" r="0.268" transform="translate(3.945 9.575)" fill="#fff"/>
      <circle id="Ellipse_1015" data-name="Ellipse 1015" cx="0.268" cy="0.268" r="0.268" transform="translate(3.945 10.647)" fill="#fff"/>
      <circle id="Ellipse_1016" data-name="Ellipse 1016" cx="0.268" cy="0.268" r="0.268" transform="translate(3.945 11.718)" fill="#fff"/>
      <circle id="Ellipse_1017" data-name="Ellipse 1017" cx="0.268" cy="0.268" r="0.268" transform="translate(4.017 11.718)" fill="#fff"/>
      <circle id="Ellipse_1018" data-name="Ellipse 1018" cx="0.268" cy="0.268" r="0.268" transform="translate(5.088 11.718)" fill="#fff"/>
      <circle id="Ellipse_1019" data-name="Ellipse 1019" cx="0.268" cy="0.268" r="0.268" transform="translate(3.945 12.79)" fill="#fff"/>
      <circle id="Ellipse_1022" data-name="Ellipse 1022" cx="0.268" cy="0.268" r="0.268" transform="translate(6.16 11.718)" fill="#fff"/>
      <circle id="Ellipse_1023" data-name="Ellipse 1023" cx="0.268" cy="0.268" r="0.268" transform="translate(7.232 11.718)" fill="#fff"/>
    </g>
  </g>
</svg>
