<svg xmlns="http://www.w3.org/2000/svg" xmlns:xlink="http://www.w3.org/1999/xlink" width="20" height="20" viewBox="0 0 20 20">
  <defs>
    <clipPath id="clip-path">
      <rect id="SVGID" width="20" height="20" fill="none"/>
    </clipPath>
  </defs>
  <g id="Group_17818" data-name="Group 17818" transform="translate(-0.071)">
    <g id="Group_17817" data-name="Group 17817" transform="translate(0.071)" clip-path="url(#clip-path)">
      <g id="Group_17816" data-name="Group 17816" transform="translate(3.652 1.667)">
        <path id="Path_31874" data-name="Path 31874" d="M10.688,3.986h2.181a.374.374,0,0,0,.374-.374V2.862A.862.862,0,0,0,12.381,2h-1.2a.862.862,0,0,0-.862.862v.749A.374.374,0,0,0,10.688,3.986Z" transform="translate(-5.431 -2)" fill="#fff"/>
        <path id="Path_31875" data-name="Path 31875" d="M16.091,3.211H13.813a.57.57,0,0,0-.57.57v.325a1.058,1.058,0,0,1-1.057,1.058H9.418A1.058,1.058,0,0,1,8.361,4.106V3.781a.57.57,0,0,0-.57-.57H5.512A1.058,1.058,0,0,0,4.454,4.268V17.81a1.058,1.058,0,0,0,1.058,1.058H16.091A1.058,1.058,0,0,0,17.15,17.81V4.268A1.058,1.058,0,0,0,16.091,3.211ZM8.361,15.816v.539a.488.488,0,0,1-.977,0v-.544a1.461,1.461,0,0,1-.78-.637.488.488,0,0,1,.845-.489.488.488,0,1,0,.423-.732,1.461,1.461,0,0,1-.488-2.84v-.559a.488.488,0,0,1,.977,0v.564a1.464,1.464,0,0,1,.78.637.488.488,0,1,1-.845.489.488.488,0,1,0-.423.733,1.461,1.461,0,0,1,.488,2.839Zm6.348-.053H10.8a.488.488,0,0,1,0-.976h3.907a.488.488,0,1,1,0,.976Zm0-1.953H10.8a.488.488,0,0,1,0-.977h3.907a.488.488,0,0,1,0,.977Zm0-1.953H10.8a.488.488,0,0,1,0-.977h3.907a.488.488,0,0,1,0,.977Zm0-3.907H6.9a.488.488,0,1,1,0-.976h7.813a.488.488,0,1,1,0,.976Z" transform="translate(-4.454 -2.202)" fill="#fff"/>
      </g>
    </g>
  </g>
</svg>
