<svg id="Group_18744" data-name="Group 18744" xmlns="http://www.w3.org/2000/svg" xmlns:xlink="http://www.w3.org/1999/xlink" width="80" height="80" viewBox="0 0 80 80">
  <defs>
    <linearGradient id="linear-gradient" x1="0.5" x2="0.5" y2="1" gradientUnits="objectBoundingBox">
      <stop offset="0" stop-color="#29e2a3"/>
      <stop offset="1" stop-color="#01b075"/>
    </linearGradient>
  </defs>
  <rect id="Rectangle_10882" data-name="Rectangle 10882" width="80" height="80" rx="5" fill="#f1f1f1"/>
  <g id="Group_18743" data-name="Group 18743" transform="translate(18.729 17.53)">
    <path id="Path_34525" data-name="Path 34525" d="M22.213,0h24.5L59.7,12.936V43.254a2.884,2.884,0,0,1-2.884,2.884h-34.6a2.884,2.884,0,0,1-2.884-2.884V2.884A2.884,2.884,0,0,1,22.213,0Z" transform="translate(-19.329)" fill="url(#linear-gradient)"/>
    <path id="Path_34526" data-name="Path 34526" d="M215.891,13.14H205.841a2.885,2.885,0,0,1-2.884-2.884V.193Z" transform="translate(-175.563 -0.164)" fill="#01b075"/>
    <path id="Path_34527" data-name="Path 34527" d="M77.317,125.64v18.743h23.069V125.64Zm17.3,1.442v2.884H91.735v-2.884Zm-8.651,7.209H83.084v-2.882h2.884Zm1.442-2.882h2.884v2.882H87.41Zm-1.442,4.325v2.882H83.084v-2.882Zm1.442,0h2.884v2.882H87.41Zm4.325,0h2.884v2.882H91.735Zm0-1.443v-2.882h2.884v2.882Zm-1.442-7.209v2.884H87.41v-2.884Zm-4.325,0v2.884H83.084v-2.884Zm-7.209,0h2.884v2.884H78.759Zm0,4.327h2.884v2.882H78.759Zm0,4.325h2.884v2.882H78.759Zm0,7.209v-2.885h2.884v2.885Zm4.325,0v-2.885h2.884v2.885Zm4.325,0v-2.885h2.884v2.885Zm4.325,0v-2.885h2.884v2.885Zm7.209,0H96.06v-2.885h2.884Zm0-4.327H96.06v-2.882h2.884Zm0-4.325H96.06v-2.882h2.884Zm0-4.325H96.06v-2.884h2.884Z" transform="translate(-68.666 -106.897)" fill="#fff"/>
  </g>
</svg>
